<svg width="56" height="45" viewBox="0 0 56 45" fill="none" xmlns="http://www.w3.org/2000/svg">
<path d="M41.081 11.4668C42.0641 11.4669 42.7952 12.2992 42.7441 13.2217L36.1581 33.0947C35.9116 33.7357 35.2962 34.164 34.6044 34.1641H12.3779C11.2395 34.1641 10.4357 33.0473 10.7968 31.9678L17.2743 12.6045C17.5018 11.9251 18.1379 11.4669 18.8544 11.4668H41.081ZM43.3544 30.5195C43.3877 31.4624 42.6318 32.245 41.6884 32.2451H39.5136L43.039 21.6035L43.3544 30.5195ZM23.2734 23.2725C22.3531 23.2727 21.6064 24.0191 21.6064 24.9395C21.6065 25.8597 22.3531 26.6062 23.2734 26.6064H33.4882C34.4085 26.6063 35.1541 25.8597 35.1542 24.9395C35.1542 24.0191 34.4086 23.2726 33.4882 23.2725H23.2734ZM19.1835 18.2383C18.2632 18.2384 17.5166 18.9849 17.5165 19.9053C17.5165 20.8257 18.2631 21.5722 19.1835 21.5723H29.3984C30.3187 21.5721 31.0644 20.8257 31.0644 19.9053C31.0643 18.9849 30.3187 18.2384 29.3984 18.2383H19.1835Z" fill="white"/>
<path d="M2.00049 10.9741L4.93278 18.3738L12.6435 13.8235M4.93278 18.3738L8.59556 9.19875C10.2738 4.99492 14.3227 2.21914 18.8489 2.1695L34.1761 2.00141C44.8356 1.88451 53.5393 10.4933 53.5393 21.1534V23.8031C53.5393 34.0247 45.2531 42.311 35.0315 42.311H19.5955C14.6212 42.311 11.098 37.4527 12.6435 32.7246" stroke="white" stroke-width="4" stroke-linecap="round"/>
</svg>
