<svg width="28" height="21" viewBox="0 0 28 21" fill="none" xmlns="http://www.w3.org/2000/svg">
<mask id="path-1-inside-1_14_599" fill="white">
<path d="M28 9.77734H22.9688L12.3174 21H0V16H8V12H13V8H18V4H28V9.77734Z"/>
</mask>
<path d="M28 9.77734H22.9688L12.3174 21H0V16H8V12H13V8H18V4H28V9.77734Z" fill="#EDEDED"/>
<path d="M28 9.77734V10.7773H29V9.77734H28ZM22.9688 9.77734V8.77734H22.5392L22.2434 9.08894L22.9688 9.77734ZM12.3174 21V22H12.747L13.0427 21.6884L12.3174 21ZM0 21H-1V22H0V21ZM0 16V15H-1V16H0ZM8 16V17H9V16H8ZM8 12V11H7V12H8ZM13 12V13H14V12H13ZM13 8V7H12V8H13ZM18 8V9H19V8H18ZM18 4V3H17V4H18ZM28 4H29V3H28V4ZM28 9.77734V8.77734H22.9688V9.77734V10.7773H28V9.77734ZM22.9688 9.77734L22.2434 9.08894L11.5921 20.3116L12.3174 21L13.0427 21.6884L23.6941 10.4657L22.9688 9.77734ZM12.3174 21V20H0V21V22H12.3174V21ZM0 21H1V16H0H-1V21H0ZM0 16V17H8V16V15H0V16ZM8 16H9V12H8H7V16H8ZM8 12V13H13V12V11H8V12ZM13 12H14V8H13H12V12H13ZM13 8V9H18V8V7H13V8ZM18 8H19V4H18H17V8H18ZM18 4V5H28V4V3H18V4ZM28 4H27V9.77734H28H29V4H28Z" fill="#C2C2C2" mask="url(#path-1-inside-1_14_599)"/>
<path d="M25 1H16L6 12H2" stroke="#C2C2C2" stroke-linecap="round"/>
<path d="M6 12V16" stroke="#C2C2C2" stroke-linecap="round"/>
<path d="M11 6.5V12.0002" stroke="#C2C2C2" stroke-linecap="round"/>
<path d="M16 1L16 8" stroke="#C2C2C2" stroke-linecap="round"/>
<path d="M21 1L21 4" stroke="#C2C2C2" stroke-linecap="round"/>
</svg>
