<svg width="18" height="26" viewBox="0 0 18 26" fill="none" xmlns="http://www.w3.org/2000/svg">
<rect x="0.5" y="6.5" width="17" height="19" fill="#EDEDED" stroke="#C2C2C2"/>
<path d="M1 4L4.5 1L8 4" stroke="#C2C2C2" stroke-linecap="round"/>
<path d="M10 1L13.5 4L17 1" stroke="#C2C2C2" stroke-linecap="round"/>
<path d="M5 14.5H6C6.82843 14.5 7.5 15.1716 7.5 16V23.5H3.5V16C3.5 15.1716 4.17157 14.5 5 14.5Z" fill="white" stroke="#C2C2C2"/>
<path d="M12 14.5H13C13.8284 14.5 14.5 15.1716 14.5 16V23.5H10.5V16C10.5 15.1716 11.1716 14.5 12 14.5Z" fill="white" stroke="#C2C2C2"/>
<circle cx="5.5" cy="10.5" r="2" fill="white" stroke="#C2C2C2"/>
<circle cx="12.5" cy="10.5" r="2" fill="white" stroke="#C2C2C2"/>
</svg>
