<svg width="40" height="40" viewBox="0 0 40 40" fill="none" xmlns="http://www.w3.org/2000/svg">
<path d="M36.4456 0C37.6256 0.000125953 38.5034 0.999254 38.4417 2.10645L30.5325 25.9678C30.2331 26.7288 29.4988 27.2361 28.6741 27.2363H2.00222C0.636251 27.2363 -0.328497 25.897 0.104757 24.6016L7.87722 1.36523C8.15011 0.549857 8.91387 0.00015998 9.7737 0H36.4456ZM39.1731 22.8633C39.213 23.9947 38.3062 24.9335 37.1741 24.9336H34.5647L38.7952 12.166L39.1731 22.8633ZM15.0764 14.167C13.9721 14.1672 13.0764 15.0626 13.0764 16.167C13.0766 17.2713 13.9722 18.1667 15.0764 18.167H27.3342C28.4385 18.1668 29.3341 17.2713 29.3342 16.167C29.3342 15.0626 28.4386 14.1672 27.3342 14.167H15.0764ZM10.1692 8.12598C9.06467 8.12598 8.16926 9.02145 8.16921 10.126C8.16921 11.2305 9.06464 12.126 10.1692 12.126H22.427C23.5313 12.1256 24.427 11.2303 24.427 10.126C24.427 9.02169 23.5312 8.12637 22.427 8.12598H10.1692Z" fill="white"/>
<path d="M30.2386 32.0068L8.218 32.0068L3.17212 32.0068M35.3488 32.0068L30.2386 32.0068M8.218 32.0068L8.218 37.4181M30.2386 32.0068L30.2386 37.4181" stroke="white" stroke-width="4" stroke-linecap="round"/>
</svg>
